<svg xmlns="http://www.w3.org/2000/svg" width="422" height="221"><defs><clipPath id="a"><path d="M0 612h792V0H0v612z"/></clipPath></defs><g clip-path="url(#a)" transform="matrix(1 0 0 -1 -186 420)" fill="#fff"><path d="M388.5 261.5L379 245c-3-5-1-9.5 0-11.2 1-1.6 3.7-5.5 9.5-5.5s8.6 4 9.6 5.5c1 1.7 3 6 0 11l-9.4 16.7zm0-61.8c-14.4 0-27.2 7.4-34.4 20-7 12.3-7 27 0 39.5l34.6 59.5 34.3-59.5c7-12.4 7-27.2 0-39.6-7-12.5-20-20-34.4-20"/><path d="M402.3 412c-3 5-8 8-13.8 8-5.7 0-11-3-13.8-8l-69-119.5c-4.5-7.6-2-17.3 5.8-21.7 7.6-4.5 17.3-1.8 21.8 5.8l55.2 95.7 55.2-95.7c3-5 8.3-8 13.8-8 2.7 0 5.5.7 8 2.2 7.6 4.4 10.2 14 5.8 21.7l-69 119.6zm-95.8-23.8c8.8 0 16 7 16 16 0 8.7-7.2 16-16 16h-105c-9 0-16-7.3-16-16 0-9 7-16 16-16H238V284.4c0-9 7-16 16-16 8.7 0 16 7 16 16v103.8h36.5zm241-54.4h-29v54.4h29c15 0 27.2-12.2 27.2-27.2s-12.2-27.2-27.2-27.2m0 86.3H502.8c-8.8 0-16-7-16-16V284.6c0-9 7.2-16 16-16s16 7 16 16V302h29c32.4 0 59 26.4 59 59s-26.6 59-59 59"/></g></svg>